<svg id="Groupe_1" data-name="Groupe 1" xmlns="http://www.w3.org/2000/svg" width="1000" height="1000" viewBox="0 0 1000 1000">
  <metadata><?xpacket begin="﻿" id="W5M0MpCehiHzreSzNTczkc9d"?>
<x:xmpmeta xmlns:x="adobe:ns:meta/" x:xmptk="Adobe XMP Core 5.6-c138 79.159824, 2016/09/14-01:09:01        ">
   <rdf:RDF xmlns:rdf="http://www.w3.org/1999/02/22-rdf-syntax-ns#">
      <rdf:Description rdf:about=""/>
   </rdf:RDF>
</x:xmpmeta>
                                                                                                    
                                                                                                    
                                                                                                    
                                                                                                    
                                                                                                    
                                                                                                    
                                                                                                    
                                                                                                    
                                                                                                    
                                                                                                    
                                                                                                    
                                                                                                    
                                                                                                    
                                                                                                    
                                                                                                    
                                                                                                    
                                                                                                    
                                                                                                    
                                                                                                    
                                                                                                    
                           
<?xpacket end="w"?></metadata>
<defs>
    <style>
      .cls-1, .cls-2 {
        fill: #fff;
      }

      .cls-2, .cls-3, .cls-4 {
        fill-rule: evenodd;
      }

      .cls-3 {
        fill: #282828;
      }
    </style>
  </defs>
  <circle id="cercle_blanc" data-name="cercle blanc" class="cls-1" cx="499" cy="500" r="400"/>
  <circle cx="500" cy="500" r="400"/>
  <circle class="cls-1" cx="499.5" cy="498.5" r="392.5"/>
  <path id="Rectangle_arrondi_1" data-name="Rectangle arrondi 1" class="cls-2" d="M850,475c0-1.192-350-375-350-375V600H800V550h50"/>
  <path id="Forme_1" data-name="Forme 1" class="cls-3" d="M800,550v50H900V550c0-33.188-43.285-67.88-50-75v75H800Z"/>
  <path class="cls-3" d="M900,600c0,27.614-22.386,32-50,32s-50-4.386-50-32"/>
  <path class="cls-2" d="M500,100V500H100"/>
  <path id="Rectangle_arrondi_2" data-name="Rectangle arrondi 2" class="cls-2" d="M63,438L438,63c6.621-6.62,17.236-7.764,24-1l37.711,37.825L100.043,499.842,62,462C53.823,453.823,56.2,444.8,63,438Z"/>
  <path class="cls-4" d="M143,455L300,613s-0.5-.5,0,25L500,838v37L111,488Z"/>
  <path id="Rectangle_2_copie" data-name="Rectangle 2 copie" class="cls-4" d="M174,424L300,550V512.5C312.5,525,500,713,500,713l1,63L162,437Z"/>
  <path id="Rectangle_2_copie_2" data-name="Rectangle 2 copie 2" class="cls-4" d="M500,625c0,4.72,0,12.5-.674,24.628C487.5,637.5,400,550,388,538c-0.5,15.607-.5,24.5,0,37L206,394l31-32"/>
  <path id="Rectangle_2_copie_3" data-name="Rectangle 2 copie 3" class="cls-4" d="M500.218,600.2C488.387,588.363,399.757,500.276,388,488c0.153-13.669-.091,2.1,0-25-13.024-14.133-125.873-126.154-126-126l19-19S550,587.5,563,600C550,600,518.732,600.2,500.218,600.2Z"/>
  <path id="Forme_4" data-name="Forme 4" class="cls-4" d="M488,900c-20.76,0-60.067-5.826-63-7-4-1.6-305-297.5-317.127-309.975C105.254,571.383,100,528.549,100,513,112.473,525,474.5,887.5,488,900Z"/>
  <path id="stripe_askdoas" data-name="stripe askdoas" class="cls-4" d="M475,513l-37.5-37.5v-225c12.5,0,25-62.5,37.5-62.5V513Z"/>
  <path id="stripe_3e_vertical" data-name="stripe 3e vertical" class="cls-4" d="M387.5,425L350,387.5V263c12.5-.5,25-0.5,38,0C387.5,275,387.5,400,387.5,425Z"/>
  <path id="Forme_6" data-name="Forme 6" class="cls-4" d="M563,600c-38-25-.5,0-38-25,0-20.894-.5-313,0-325,6.135-6.646,12.5-37.5,13-50h25C563,212.5,562.5,575,563,600Z"/>
  <path id="Forme_7" data-name="Forme 7" class="cls-4" d="M850,525V500H738V600h37V525h75Z"/>
  <path id="Forme_8" data-name="Forme 8" class="cls-4" d="M712,600H675V450H818c10.554,12.5,3.111,3.9,20,25H712"/>
  <path id="Forme_9" data-name="Forme 9" class="cls-4" d="M650,600a361.339,361.339,0,0,0-38,0V400c12.5,0.5,141,0,159,0,22.756,25,.23,0,23,25H649.5"/>
  <path id="Forme_10" data-name="Forme 10" class="cls-4" d="M850,488c-11.932-12.787-246.093-263.987-258-276,6.927-.021,1.814,0,13,0,12.5,12.5,232.5,250,245,263v13Z"/>
  <path id="Forme_1-2" data-name="Forme 1" class="cls-4" d="M263,238c3.47,33.455,52.9,49.5,125,50-0.5-25.5-1-62.1-1-76h75c0,19.384.484,63,13,75,25,0,25.384,0,52.87-.1,9.508-12.322,10.925-64.135,9.13-74.9,27.2,0,76.061-.11,100.728-0.11,7.372,0.608-1.942-7.068-.084-9.586s6.776-4.072,8.878-7.843,3.485-33.608,3.485-33.608-12.829-9.45-15.991-11.01,4.4-8.714,4.4-8.714-6.524-32.2-13.566-41.572S325.052-131.542,250,134c-1.161,4.108,12,10.562,12,16"/>
  <path class="cls-2" d="M425,100c15.464,0,39.172,37.576,39,76-0.394,87.669-23.516,99.032-39,99-15.464-.032-40.5-12-40-100C385.218,136.576,409.536,100,425,100Z"/>
  <path class="cls-4" d="M425,113c16.845,0,30,35.788,30,75s-13.155,80-30,80-31-40.788-31-80S408.155,113,425,113Z"/>
  <path id="Crinière_1" data-name="Crinière 1" class="cls-4" d="M62.5,463.5c-7.827-6.831-6.263-15.016-5.5-16.5,4.251-8.27.8-2.339,20-22,28.867,13.5,35.5,16.676,67,31-6.739,6.252-19,20-31.5,32.5C62.788,462.932,112.5,488.5,62.5,463.5Z"/>
  <path id="Crinière_2" data-name="Crinière 2" class="cls-4" d="M96,405c8.865-9.5,5.968-6.456,12-12,67,32,.486.159,67,32-3.277,3.61-9.155,8.614-12.5,12.5C100,406.932,162.5,437.5,96,405Z"/>
  <path id="Crinière_3" data-name="Crinière 3" class="cls-4" d="M206,395c6.5-6.5,26.807-27.313,31.5-32.5-23.526-10.731-45.1-21.6-66.5-32.5-7.67,6.831-25.057,24.142-32,32C156.6,370.385,166.217,376,206,395Z"/>
  <path id="Crinière_4" data-name="Crinière 4" class="cls-4" d="M262.5,337.5c3.263-3.4,16.19-16.077,19.5-19.5-13.235-6.461-53.51-26.625-66-33-7.829,7.191-15.61,15.541-20,20C206.481,310.716,251.688,332.448,262.5,337.5Z"/>
  <path id="Forme_2" data-name="Forme 2" class="cls-3" d="M658,311c0-1.69-13.5-15-26-15-13,0-27,12.1-27,15s14.5,14,27,14S658,312.69,658,311Z"/>
</svg>
